<?xml version="1.0" encoding="UTF-8"?>
<svg id="Layer_1" data-name="Layer 1" xmlns="http://www.w3.org/2000/svg" viewBox="0 0 764.2 764.2">
  <defs>
    <style>
      .cls-1 {
        fill: #fff500;
      }
    </style>
  </defs>
  <g id="Layer_4" data-name="Layer 4">
    <g>
      <path class="cls-1" d="M404.6,207.6c1-.6,1.5-1.5,1.6-2.6l46.7-35.5c1.3-1,1.6-2.8.7-4.2s-2.7-1.8-4.2-1l-33.3,19.2c-1.5.9-2,2.8-1.1,4.3.4.7,1,1.1,1.6,1.4l-23.2,17.6c-1.2.9-1.5,2.5-.9,3.8l-12.9,7.5c-1.5.9-2,2.8-1.1,4.3.8,1.3,2.4,1.9,3.8,1.4,0,.1.1.2.2.4.2.3.4.4.7.6-.8-.2-1.6-.1-2.3.3l-1.7,1-12.9-24.7c-.4-.8-1.1-1.3-1.9-1.5s-1.7-.1-2.4.3l-1.8,1-25.9-27.6c-1-1.1-2.6-1.3-3.8-.6l-3,1.8-42.3-21h-.2l-9.8-6c-1-.6-2.2-.6-3.2,0l-1.5.9h0c0-1.2-.7-2.2-1.6-2.7s-2.1-.5-3,0l-4.7,2.7-24.3-9.6c-.9-.4-1.9-.3-2.7.2l-6.1,3.5-31.9-5.6c-.7-.1-1.5,0-2.1.4l-1.3.7-85.1,3.3c-.5,0-1,.2-1.4.4l-1.5.9c-1.5.9-2,2.8-1.1,4.3s2.8,2,4.3,1.1l.8-.5,85.1-3.3c.5,0,1-.2,1.4-.4l1-.6,31.9,5.6c.7.1,1.5,0,2.1-.4l5.7-3.3,24.3,9.6c.9.4,1.9.3,2.7-.2l1.7-1h0c0,1.2.7,2.2,1.6,2.7,1,.5,2.1.5,3,0l4.3-2.5,8.6,5.3c.2.1.4.2.7.3l43.4,21.5c.9.5,2,.4,2.9,0l2.4-1.4,25.9,27.6c1,1.1,2.6,1.3,3.8.6l1.1-.7,12.9,24.7c.4.8,1.1,1.3,1.9,1.5.3,0,.6.1.9.1l-3.2,13.8c-.3,1.2.2,2.5,1.2,3.2.8.6,1.7.7,2.6.5l-4,29.9c-.2,1.2.4,2.3,1.4,3,.9.6,2.1.7,3.1.2l-.6,16.6v.8l-4.2,39.9c-.1,1.2.4,2.3,1.4,2.9.8.5,1.8.6,2.6.4l-4.4,42.4v.3c0,.6.1,1.1.4,1.6.5.9,1.4,1.4,2.3,1.5l-2.7,8.8c-.4,1.2,0,2.5,1,3.3.5.4,1.1.6,1.7.7l-2.8,9.8c-.3,1.2,0,2.5,1.1,3.3.7.6,1.7.8,2.5.6l-3.8,24.8c-.2,1.2.3,2.4,1.3,3,.8.5,1.7.7,2.6.4l-3.9,32.9c-.1,1.2.4,2.3,1.4,3,.2.1.4.2.6.3l-1.8,4.2c-.5,1.2-.2,2.7.8,3.5.6.5,1.3.8,2,.8l-3,12c-.3,1.2.2,2.5,1.2,3.2.8.6,1.7.8,2.6.5l-3.7,28.2c-.2,1.2.4,2.3,1.4,3,.7.5,1.6.6,2.4.4l-3.6,26.8c-.2,1.2.4,2.3,1.4,3,.8.5,1.8.7,2.7.4l-3.6,42.6c0,1.2.5,2.3,1.4,2.9.5.3,1,.5,1.6.5l-1.4,5.6c-.3,1.2.1,2.5,1.1,3.2.6.4,1.2.6,1.9.6s1.1-.1,1.6-.4l3.2-1.8c1.5-.9,2-2.8,1.1-4.3-.4-.6-.9-1.1-1.5-1.3l1.7-6.6c.3-1.2-.1-2.5-1.1-3.2-.8-.6-1.9-.8-2.9-.5l3.6-42.6c0-1.2-.5-2.3-1.4-2.9-.7-.5-1.6-.6-2.4-.4l3.6-26.8c.2-1.2-.4-2.3-1.4-3-.7-.5-1.6-.6-2.5-.4l3.7-28.2c.2-1.2-.4-2.3-1.4-3-.5-.3-1.1-.5-1.7-.5l3-12c.3-1.2-.2-2.5-1.2-3.2-.2-.2-.5-.3-.8-.4l1.8-4.2c.5-1.2.2-2.7-.8-3.5-.8-.7-1.9-.9-2.9-.7l3.9-32.9c.1-1.2-.4-2.3-1.4-3-.7-.5-1.5-.6-2.3-.5l3.8-24.8c.2-1.2-.3-2.4-1.3-3-.5-.3-1-.5-1.5-.5l2.8-9.8c.3-1.2,0-2.5-1.1-3.3-.5-.4-1-.6-1.6-.6l2.7-8.8c0-.3.1-.6.1-.9,0-.5-.1-1.1-.4-1.6-.7-1.3-2.3-1.8-3.6-1.4l4.4-42.4c.1-1.2-.4-2.3-1.4-2.9-.8-.5-1.8-.6-2.6-.4l3.7-35.1c0-.4,0-.8-.2-1.2l.7-21c0-1.1-.5-2.2-1.5-2.8-.7-.4-1.6-.5-2.3-.4l4-29.9c.2-1.2-.4-2.3-1.4-3-.6-.4-1.2-.5-1.8-.5l3.2-13.7c.3-1.2-.2-2.4-1.1-3.2.2,0,.4.2.7.2.5,0,1.1-.1,1.6-.4l.4-.2c.4-.2.7-.5,1-.9l11.2-9.9c1.1-.9,1.3-2.4.7-3.6l4.7-2.7.1-.2Z"/>
      <path class="cls-1" d="M754.5,510l2-4.8c.5-1.2.2-2.7-.8-3.5-.6-.5-1.3-.8-2.2-.8l3.1-13.4c.3-1.2-.2-2.5-1.2-3.2-.7-.5-1.6-.7-2.4-.6l3.1-20.2c.2-1.2-.3-2.4-1.3-3-.8-.5-1.8-.7-2.7-.4l2.4-31.6c0-1.2-.5-2.3-1.4-2.9-.9-.5-1.9-.6-2.9-.2l1.1-40.2c0-1.1-.6-2.2-1.5-2.8-.7-.4-1.5-.5-2.3-.4l2-20c.1-1.2-.4-2.3-1.4-2.9-.8-.5-1.8-.6-2.8-.3l1.2-28.2c0-1.1-.5-2.2-1.5-2.8-.9-.5-1.9-.6-2.8-.2v-33.1c0-1.1-.7-2.1-1.6-2.7-.9-.5-1.9-.6-2.8-.1l-.7-32.6c0-1.1-.6-2.1-1.6-2.7-.1,0-.3-.1-.4-.2l-1.1-17.3c0-1.1-.7-2-1.6-2.5-.6-.3-1.2-.4-1.8-.4l1.3-9.7c.2-1.2-.4-2.3-1.4-3-.8-.5-1.7-.7-2.6-.4l.6-16c0-1.1-.5-2.2-1.5-2.8s-2.2-.6-3.2,0l-2.6,1.5-28-16.9c-1-.6-2.2-.6-3.2,0l-2.5,1.5-5.8-34.4c-.2-1-.8-1.9-1.7-2.3-.9-.4-2-.4-2.9.1l-.5.3-2-6.6c-.3-.9-.9-1.6-1.8-2-.7-.3-1.5-.3-2.2,0,0-1.1-.6-2.1-1.5-2.7-1-.6-2.2-.6-3.2,0l-3.5,2-23.5-10c-.9-.4-1.9-.3-2.8.2l-6,3.5-32.4-5.3c-.7-.1-1.4,0-2.1.4l-2,1.1-102.3,13c-.4,0-.8.2-1.2.4l-19.2,11.1c-1.5.9-2,2.8-1.1,4.3s2.8,2,4.3,1.1l18.7-10.8,102.3-13c.4,0,.8-.2,1.2-.4l1.5-.9,32.4,5.3c.7.1,1.4,0,2.1-.4l5.6-3.2,23.5,10c.9.4,1.9.3,2.8-.2,0,1.1.6,2.1,1.5,2.6,1,.6,2.2.6,3.2,0l.9-.5,2,6.6c.3.9.9,1.6,1.8,2,.9.3,1.9.3,2.7-.2h0l6.5,38.4c.2,1,.8,1.9,1.7,2.3.9.4,2,.4,2.9-.1l.6-.4-1.6,40.8c0,1.1.5,2.2,1.5,2.8.8.5,1.7.6,2.5.3l-1.4,31.3c0,1.1.5,2.2,1.5,2.8.6.4,1.3.5,2,.4l-2,13.1c-.2,1.2.3,2.4,1.3,3,.8.5,1.8.7,2.7.4l-1.9,28.8c0,1.1.5,2.2,1.5,2.9.7.4,1.5.6,2.2.4l-2.3,17.5c-.2,1.2.4,2.3,1.4,3,.8.5,1.9.7,2.8.3l-1.7,34.1c0,1.1.5,2.2,1.5,2.8.8.5,1.7.6,2.6.3l-2.8,41.6v.4c0,.5.2,1,.4,1.4.5.9,1.5,1.5,2.4,1.5l-2.3,8.6c-.3,1.2.1,2.5,1.1,3.3.5.4,1.1.6,1.8.6l-2.4,9.6c-.3,1.2.1,2.5,1.1,3.2.7.6,1.7.8,2.5.6l-3.1,24.5c-.1,1.2.4,2.3,1.4,3,.6.4,1.3.6,2,.5l-6.9,34.6c-.2,1.2.2,2.4,1.2,3.1.5.4,1.2.6,1.8.6h.6l-9,5.2-42.4-5.1c-.7,0-1.3,0-1.9.4l-8.5,4.9-62.9,1.1c-.5,0-1,.2-1.5.4l-2.5,1.4-69.9,12c-.4,0-.7.2-1,.4l-6.7,3.9-11.7,2.9c-.3,0-.6.2-.8.3l-15.8,9.1c-1.5.9-2,2.8-1.1,4.3.6,1,1.6,1.6,2.7,1.6s1.1-.1,1.6-.4l15.4-8.9,11.7-2.9c.3,0,.6-.2.8-.3l6.6-3.8,69.9-12c.4,0,.7-.2,1-.4l2.3-1.3,62.9-1.1c.5,0,1-.2,1.5-.4l8.3-4.8,42.4,5.1c.7,0,1.3,0,1.9-.4l10.6-6.1c1.5-.9,2-2.8,1.1-4.3-.7-1.2-2.1-1.7-3.3-1.4l6.1-3.5c1.5-.9,2-2.8,1.1-4.3s-2.8-2-4.3-1.1l-.7.4,6.8-34.3c.2-1.2-.2-2.4-1.2-3.1-.7-.5-1.7-.7-2.5-.5l3.1-24.4c.1-1.2-.4-2.3-1.4-3-.5-.3-1-.5-1.6-.5l2.4-9.6c.3-1.2-.1-2.5-1.1-3.2-.5-.4-1-.6-1.6-.6l2.4-8.6c0-.3.1-.5.1-.8,0-.5-.1-1.1-.4-1.6-.8-1.3-2.4-1.9-3.7-1.4l2.8-41.5c0-1.1-.5-2.2-1.5-2.9-.8-.5-1.8-.6-2.7-.3l1.7-34.1c0-1.1-.5-2.2-1.5-2.8-.7-.4-1.4-.5-2.2-.4l2.3-17.5c.2-1.2-.4-2.3-1.4-3-.8-.5-1.8-.7-2.7-.4l1.9-28.8c0-1.1-.5-2.2-1.5-2.9-.6-.4-1.3-.5-2-.4l2-13.1c.2-1.2-.3-2.4-1.3-3-.8-.6-1.8-.7-2.8-.4l1.4-31.3c0-1.1-.5-2.2-1.5-2.8-.8-.5-1.7-.6-2.6-.3l1.6-40.1,25.1,15.1c.7.4,1.6.6,2.4.3l-.6,16c0,1.1.5,2.2,1.5,2.8.6.4,1.3.5,1.9.4l-1.3,9.7c-.2,1.2.4,2.3,1.4,3,.9.6,2.2.7,3.2.2l1,16c0,1.1.7,2,1.6,2.5h.2l.7,34.1c0,1.1.6,2.1,1.6,2.7.8.5,1.8.5,2.7.2v33.1c0,1.1.7,2.1,1.6,2.7.8.4,1.7.5,2.5.3l-1.2,28.2c0,1.1.5,2.2,1.5,2.8.7.4,1.6.6,2.4.4l-2,20c-.1,1.2.4,2.3,1.4,2.9.8.5,1.9.6,2.8.3l-1.1,40.2c0,1.1.6,2.2,1.5,2.8.8.5,1.7.6,2.5.3l-2.4,31.6c0,1.2.5,2.3,1.4,2.9.6.4,1.4.5,2.1.4l-3.1,20.2c-.2,1.2.3,2.4,1.3,3,.5.4,1.2.6,1.8.5l-3.1,13.4c-.3,1.2.2,2.5,1.2,3.2.3.2.5.3.8.4l-2,4.8c-.2.4-.3.9-.2,1.4,0,.6,0,1.3.5,1.9.7,1.2,2.1,1.7,3.4,1.4l-5.2,39.2c-.2,1.2.4,2.3,1.4,3,.8.5,1.7.7,2.6.4l-2.8,16.1s0-.1-.1-.1c0-.8-.4-1.6-1.1-2.2-1-.9-2.5-1-3.6-.4l-6,3.5-61.4-2.5c-.5,0-1.2.1-1.7.4l-1.6.9-59.5-3.3c-.6,0-1.2.1-1.7.4l-6.5,3.7-33-2.2c-.6,0-1.2,0-1.8.4l-9.3,5.4-16.8-3.8c-.8-.2-1.6,0-2.2.3l-10,5.8-34.1-.8c-.6,0-1.1.1-1.6.4l-2.3,1.4-59.8,2.2,2.8-1.6c1.2-.7,1.7-2,1.5-3.2l21-17.3c1.3-1,1.5-2.8.6-4.2-.9-1.3-2.7-1.7-4.1-.9l-15.5,8.9c-1.5.9-2,2.8-1.1,4.3,0,0,.1.2.2.3l-14.2,11.7c-1.3,1-1.5,2.8-.6,4.2.1.2.3.4.5.6-.7.6-1.1,1.4-1.2,2.3h0c-1-1-2.6-1.3-3.8-.6l-2.3,1.3c-1.3.8-1.9,2.3-1.4,3.7l-12.1,18.7c-.8,1.2-.6,2.8.4,3.8.6.6,1.4,1,2.3,1s1.1-.1,1.6-.4l.8-.5c1,1,2.5,1.3,3.7.5l2.3-1.3,66.1,7.4c.7,0,1.3,0,1.9-.4l2.1-1.2,38.8,1.8c.6,0,1.2-.1,1.7-.4l.5-.3,40.8,1c.6,0,1.1-.1,1.6-.4l5.5-3.2.2.7c.2.9.9,1.7,1.8,2.1.9.4,1.9.3,2.8-.2l.6-.4,19.9.2h0c.5,0,1.1-.1,1.6-.4l2.5-1.4,77.1,1.9c.6,0,1.1-.1,1.6-.4l.5-.3,58.6,2.7h.1c.5,0,1.1-.1,1.6-.4l5.2-3c1.5-.9,2-2.8,1.1-4.3-.7-1.2-2-1.7-3.3-1.5l6.2-3.6c1.5-.9,2-2.8,1.1-4.3-.5-.9-1.5-1.5-2.5-1.6l2.4-5c.6-1.2.3-2.7-.7-3.6-.6-.6-1.4-.8-2.2-.8l7.6-43c.2-1.2-.3-2.4-1.3-3.1-.9-.6-1.9-.7-2.9-.4l5.2-39.1v-.6c0-.6,0-1.3-.5-1.9-.4-.6-1-1.1-1.6-1.3l-.1.2ZM738.2,621.2l-58.6-2.7c-.6,0-1.2.1-1.7.4l-.6.3-77.1-1.9c-.6,0-1.1.1-1.6.4l-2.5,1.5-19.1-.2-.4-1.5c-.2-.9-.9-1.7-1.8-2.1-.9-.4-1.9-.3-2.8.2l-8.3,4.8-40.8-1c-.6,0-1.1.1-1.6.4l-.5.3-38.8-1.8c-.6,0-1.2.1-1.7.4l-2.1,1.2-66.1-7.4c-.5,0-.9,0-1.4.2l10.6-16.4c.3-.5.4-1,.5-1.6.6.6,1.4,1,2.3,1s1.1-.1,1.6-.4l2.6-1.5,63.8-2.3c.5,0,1-.2,1.4-.4l2.3-1.3,34.1.8c.6,0,1.1-.1,1.6-.4l9.7-5.6,16.8,3.8c.8.2,1.6,0,2.2-.3l9.5-5.5,33,2.2c.6,0,1.2,0,1.8-.4l6.5-3.7,59.5,3.3c.6,0,1.2-.1,1.7-.4l1.6-.9,61.4,2.5c.6,0,1.2-.1,1.7-.4l.8-.5c.2.2.3.4.5.6,1,.9,2.5,1,3.6.4l2.5-1.5-3.7,20.9c-.2,1.2.3,2.4,1.3,3.1,0,0,.1,0,.2.1l-3.2,6.8c-.6,1.2-.3,2.7.7,3.6.6.5,1.3.8,2.1.8s.4,0,.5,0l-4.2,2.4.2-.3Z"/>
      <path class="cls-1" d="M22.9,579.8l50.4,5.1c.6,0,1.3,0,1.9-.4l8-4.6,26.3,5c.7.1,1.5,0,2.1-.4l7.8-4.5,14.3,4.9c.9.3,1.8.2,2.6-.2l7.7-4.4,28.4,4.6c.7.1,1.4,0,2.1-.4l4.8-2.8,52.2,7.4c.7,0,1.4,0,2-.4h.1l51.6,7.8c.7.1,1.4,0,2-.4l5.7-3.3,35.6,8.4h.7c.5,0,1.1-.1,1.6-.4l7.9-4.5,9.7,14.9c.6.9,1.6,1.4,2.6,1.4s1.1-.1,1.6-.4l3.2-1.8c1.5-.9,2-2.8,1.1-4.3s-2.8-2-4.3-1.1l-.6.4-11.2-17.2c-.7-1.1-2.1-1.6-3.3-1.3v-5.1c0-1.1-.6-2.1-1.5-2.7-1-.6-2.2-.6-3.1,0l-1.8,1-17.1-16.8c-1-1-2.5-1.2-3.7-.5l-2.1,1.2-1.7-3.5c-.4-.8-1.1-1.4-1.9-1.6-.8-.3-1.7-.2-2.5.3l-3.7,2.2-46.6-20.6c-.9-.4-2-.3-2.8.2l-4,2.3-4.6-4.8c-1-1-2.6-1.2-3.8-.5l-5.2,3-51.8-13.2c-.8-.2-1.6,0-2.3.3l-6.6,3.8-55.5-7.1c-.9-1.3-2.7-1.6-4.1-.8l-7.4,4.2-4.8-3.8c-1-.8-2.4-.9-3.5-.3l-8.2,4.7-18.2-5.6c-.8-.3-1.7-.2-2.5.3l-1.2.7-2.5-17.7c-.1-1-.8-1.9-1.7-2.4-.7-.3-1.4-.4-2.2-.2l4-32.5c.1-1.2-.4-2.3-1.4-3-.8-.5-1.7-.6-2.6-.4l4.9-42.2c.1-1.2-.4-2.3-1.4-3-.6-.4-1.4-.6-2.1-.5l4.4-21.2c.2-1.2-.2-2.4-1.2-3.2-.7-.5-1.6-.7-2.4-.5l5.5-30.4c.2-1.2-.3-2.4-1.3-3.1-.7-.5-1.7-.7-2.5-.5l6.2-36.3c.2-1.2-.3-2.4-1.3-3.1-.7-.5-1.6-.7-2.5-.5l6.4-36.2c.2-1.2-.3-2.4-1.3-3.1-.1,0-.2-.1-.3-.2l3.4-19.6c.2-1.2-.3-2.4-1.3-3.1-.4-.3-.9-.5-1.3-.5l3.9-11.2c.4-1.2,0-2.6-.9-3.4-.6-.5-1.4-.7-2.1-.7l5.2-18.3c.3-1.2,0-2.5-1.1-3.3-1-.7-2.3-.9-3.3-.3l2.1-27.1,2.7-1.5c1.5-.9,2-2.8,1.1-4.3-.7-1.2-2-1.7-3.2-1.5l5.4-3.1c1.5-.9,2-2.8,1.1-4.3-.7-1.1-1.9-1.7-3.2-1.5l11.8-30.2c.5-1.2.1-2.6-.9-3.5s-2.4-1-3.6-.3l-.7.4c-1.2.7-1.8,2.1-1.5,3.4l-14.1,36c-.4.9-.3,2,.3,2.8l-1.3.7-2.5-1.1c-.9-.4-2-.4-2.8.1l-8.5,4.9c-1.5.9-2,2.8-1.1,4.3s2.8,2,4.3,1.1l7.1-4.1.5.2c-.8,1.2-.7,2.7.3,3.8.6.7,1.5,1,2.3,1s0,0,0,0l-2.3,29.2c0,1.2.5,2.3,1.4,2.9.5.3,1.2.5,1.7.5l-5.2,18.4c-.3,1.2,0,2.5,1.1,3.3.5.4,1,.6,1.5.6l-3.9,11.1c-.4,1.2,0,2.6.9,3.4.8.7,1.8.9,2.8.6l-3.1,17.8c-.2,1.2.3,2.4,1.3,3.1.1,0,.2.1.3.2l-6.7,37.9c-.2,1.2.3,2.4,1.3,3.1.7.5,1.6.7,2.5.5l-6.2,36.3c-.2,1.2.3,2.4,1.3,3.1.7.5,1.6.7,2.4.5l-5.5,30.4c-.2,1.2.3,2.4,1.3,3.1.7.5,1.5.6,2.2.5l-4.4,21.2c-.2,1.2.2,2.4,1.2,3.2.8.6,1.8.7,2.8.4l-4.9,42.2c-.1,1.2.4,2.3,1.4,3,.8.5,1.7.6,2.5.4l-4,32.4c-.1,1.2.4,2.3,1.4,3s2.3.7,3.3,0l.7-.4,2.5,17.7c.1,1,.8,1.9,1.7,2.4s2,.4,2.9-.1l4-2.3,18.2,5.6c.8.3,1.7.2,2.5-.3l7.5-4.3,4.8,3.8c1,.8,2.4.9,3.5.3l3.2-1.9c.5,0,1-.1,1.5-.4l2.8-1.6,58.4,7.5c.7,0,1.4,0,2-.4l6.4-3.7,51.8,13.2c.8.2,1.6,0,2.3-.3l4.2-2.4,4.6,4.8c1,1,2.6,1.2,3.8.5l4.7-2.7,46.6,20.6c.9.4,2,.3,2.8-.2l2.2-1.3,1.7,3.5c.4.8,1.1,1.4,1.9,1.6.8.3,1.7.2,2.5-.3l3-1.7,17.1,16.8c.8.8,1.9,1,2.9.8v5.1c0,.4,0,.8.2,1.1l-2.8,1.6-35.6-8.4c-.8-.2-1.6,0-2.3.3l-5.9,3.4-51.6-7.9c-.7-.1-1.4,0-2,.4h-.1l-52.2-7.3c-.7,0-1.4,0-2,.4l-4.8,2.7-28.4-4.6c-.7-.1-1.4,0-2.1.4l-7.4,4.3-14.3-4.9c-.9-.3-1.8-.2-2.6.2l-8,4.6-26.3-5c-.7-.1-1.5,0-2.1.4l-8.2,4.7-50.4-5.1h0c-.2-.7-.6-1.4-1.3-1.8-.5-.3-1.1-.5-1.7-.5h0l.7-3.2c.2-1.2-.2-2.4-1.2-3.2-.5-.3-1-.5-1.6-.6l1.1-6.3c.2-1.2-.3-2.4-1.3-3.1-.3-.2-.7-.4-1.1-.5l2.5-6.8c.5-1.2,0-2.6-.9-3.5-.1-.1-.3-.2-.4-.3l1.4-2.6c.6-1.2.4-2.7-.6-3.7-.3-.3-.6-.5-1-.6l1.8-4.1c.5-1.2.2-2.7-.8-3.6-.8-.8-2-1-3.1-.6l5.2-50.3c.1-1.2-.4-2.3-1.4-2.9-.3-.2-.7-.4-1.1-.4l2.6-7.4c.4-1.2,0-2.6-.9-3.4-.7-.6-1.6-.8-2.5-.7l4.4-24.5c.2-1.2-.3-2.4-1.3-3.1-.5-.4-1.1-.6-1.8-.6l3.6-13.6c.3-1.2-.1-2.5-1.1-3.3-.7-.5-1.5-.7-2.3-.6l5-25.3c.2-1.2-.3-2.4-1.2-3.1-.5-.4-1.1-.5-1.6-.6l3.8-12.6c.4-1.2,0-2.5-1-3.3l.9-1.5c.8-1.2.6-2.8-.4-3.8-.6-.6-1.4-.9-2.1-.9l3.7-13c.4-1.2,0-2.5-1.1-3.3-.4-.3-.9-.5-1.3-.6l2.2-6.1c.4-1,.2-2.2-.5-3l2.7-12c.3-1.2-.2-2.5-1.2-3.2-.6-.5-1.4-.7-2.2-.6l6.6-24c.3-1.2,0-2.5-1.1-3.3-.7-.5-1.6-.7-2.4-.6l10.4-46.4c.3-1.2-.2-2.5-1.2-3.2-.6-.5-1.4-.7-2.2-.6l8.9-31.6c.3-1.2,0-2.5-1.1-3.3,0,0-.2-.1-.3-.2l9.1-15.9c.7-1.2.5-2.8-.5-3.8s-2.5-1.2-3.8-.5l-1.6.9c-1.3.7-1.8,2.2-1.4,3.5l-11.4,19.8c-.7,1.2-.5,2.8.5,3.8.7.7,1.6,1,2.5.9l-8.9,31.6c-.3,1.2,0,2.5,1.1,3.3.8.6,1.8.8,2.7.6l-10.3,46.3c-.3,1.2.2,2.5,1.2,3.2.6.4,1.3.6,2,.6l-6.6,24.1c-.3,1.2,0,2.5,1.1,3.3.7.6,1.7.8,2.6.6l-2,8.8c-.2.8,0,1.5.3,2.2l-3.4,9.6c-.4,1.2,0,2.6.9,3.4.5.5,1.2.7,1.9.7l-3.7,13c-.3,1.2,0,2.4,1,3.2l-.9,1.5c-.8,1.2-.6,2.8.4,3.8.6.6,1.3.9,2.1.9l-3.8,12.6c-.4,1.2,0,2.5,1.1,3.3.7.6,1.6.8,2.5.6l-5,25.3c-.2,1.2.3,2.4,1.2,3.1.5.4,1.2.6,1.8.6l-3.6,13.6c-.3,1.2.1,2.5,1.1,3.3.7.5,1.6.7,2.4.6l-4.4,24.4c-.2,1.2.3,2.4,1.3,3.1.4.3.8.4,1.2.5l-2.6,7.4c-.4,1.2,0,2.6.9,3.4.8.7,2,.9,3,.6l-5.2,50.3c-.1,1.2.4,2.3,1.4,2.9.2.1.3.2.5.3l-1.8,4.1c-.5,1.2-.2,2.7.8,3.6s.3.3.5.4l-1.4,2.6c-.6,1.2-.4,2.7.6,3.7.4.4.9.7,1.4.8l-2.5,6.8c-.5,1.2,0,2.6.9,3.5.7.6,1.7.8,2.6.7l-1,5.8c-.2,1.2.3,2.4,1.3,3.1.4.3.9.5,1.3.5l-.7,3.5c-.2,1.2.2,2.4,1.2,3.2.6.4,1.3.6,2.1.5,0,.2,0,.4.2.6,0,.1.2.2.2.3l-3.2,38.3c0,1.2.5,2.3,1.4,2.9s2.2.6,3.2,0l2.1-1.2,14.5,10.3c.5.4,1.2.6,1.8.6s1.1-.1,1.6-.4l9.6-5.5h34.3c.4,0,.8,0,1.2-.2l20.8,3c.7,0,1.4,0,2-.4l8.8-5.1,56.8,4c.6,0,1.2,0,1.8-.4l8.3-4.8,78.2,5.6c.6,0,1.2,0,1.8-.4l7.8-4.5,44,5.3c.7,0,1.3,0,1.9-.4l.8-.4h26.8v.1c.5,0,1.1-.1,1.6-.4l11.7-6.8c1.5-.9,2-2.8,1.1-4.3s-2.8-2-4.3-1.1l-11,6.4h-26.8c-.6-.1-1.1,0-1.6.3l-.6.3-44-5.3c-.7,0-1.3,0-1.9.4l-7.9,4.6-78.2-5.6c-.6,0-1.2,0-1.8.4l-8.3,4.8-56.8-4c-.6,0-1.2,0-1.8.4l-8.7,5-20.7-3c-.6,0-1.3,0-1.9.3h-34.3c-.5,0-1.1.1-1.6.4l-8.6,4.9-14.5-10.3c-.6-.4-1.3-.6-2.1-.6l2.9-33.6.8-.5v.3Z"/>
    </g>
  </g>
</svg>