<?xml version="1.0" encoding="UTF-8"?>
<svg id="Layer_1" data-name="Layer 1" xmlns="http://www.w3.org/2000/svg" viewBox="0 0 764.2 764.2">
  <defs>
    <style>
      .cls-1 {
        fill: #339f00;
      }
    </style>
  </defs>
  <path class="cls-1" d="M740.17,547.63c-.74-1.2-2.31-1.57-3.51-.83l-6.29,3.88,8.76-63.55c.14-.98-.31-1.95-1.13-2.49-.83-.54-1.89-.55-2.73-.03l-4.91,3.03,7.7-35.85c.22-1-.19-2.03-1.02-2.62-.7-.5-1.6-.6-2.38-.3l2.77-3.96c.69-.99.59-2.33-.24-3.21-.83-.88-2.17-1.05-3.19-.42l-4.27,2.63,7.34-24.28c.31-1.01-.05-2.11-.89-2.76-.84-.65-1.99-.7-2.9-.15l-5.61,3.46,7.36-73.72c.1-.97-.36-1.9-1.19-2.42-.82-.51-1.87-.52-2.69,0l-5.54,3.42,7.49-66.63c.11-.97-.34-1.92-1.17-2.44-.82-.52-1.87-.53-2.7-.02l-6.33,3.9-5.02-100.64c-.04-.9-.56-1.71-1.36-2.13-.8-.42-1.76-.39-2.53.09l-8.74,5.39-45.19-9.15c-.64-.13-1.29-.01-1.85.33l-13.02,8.03-47.83-6.54c-.58-.08-1.18.05-1.68.36l-13.01,8.03-48.16-6.55c-.59-.08-1.18.05-1.68.36l-13.08,8.07-77.3-5.76c-.53-.04-1.07.09-1.53.37l-13.1,8.08-93.1-5.32c-.52-.03-1.04.1-1.48.38l-13.14,8.11-146.4-3.81c-.5-.02-.98.12-1.41.38l-13.1,8.08-96.76-5.27c-.52-.03-1.03.1-1.48.38l-11.88,7.33,1.16-1.59c.72-.99.64-2.34-.19-3.24-.83-.9-2.17-1.08-3.21-.44l-19.09,11.77c-1.2.74-1.57,2.31-.83,3.51.74,1.2,2.31,1.57,3.51.83l4.36-2.69c.46.37,1.02.57,1.6.56l-12.25,16.79c-.72.98-.64,2.34.19,3.24.83.9,2.17,1.08,3.21.44l5.65-3.48-7.28,78.13c-.09.96.37,1.89,1.2,2.4.82.51,1.86.51,2.68,0l3.41-2.11-6.61,16.5c-.41,1.02-.12,2.19.73,2.9.84.71,2.04.8,2.98.22l.76-.47-3.99,6.41c-.63,1.01-.48,2.31.36,3.15.84.84,2.14.99,3.15.37l4.82-2.97-7.67,33.64c-.06.25-.07.5-.06.75,0,.48.12.96.39,1.39.74,1.19,2.31,1.55,3.5.81l5.78-3.56-6.81,99.23c-.07.95.41,1.86,1.23,2.36.82.49,1.85.49,2.66-.01l5.44-3.35-7.64,58.6c-.13.98.32,1.94,1.14,2.47.83.53,1.89.54,2.72.03l6.23-3.84,1.75,64.38c.02.91.53,1.74,1.34,2.17.71.38,1.54.39,2.27.05.49.43,1.12.66,1.76.64.43-.01.87-.14,1.26-.38l7.91-4.88c.45-.28.79-.68.99-1.13l121.25,7.99c.53.04,1.06-.1,1.51-.38l13-8.02,44.74,6.61c.59.09,1.2-.04,1.71-.35l12.97-8,38.8,6.76c.61.11,1.25-.01,1.78-.34l13.15-8.11,171.67,3.06c.49,0,.97-.12,1.39-.38l13.14-8.11,153.32,3.66s.09,0,.13,0c.45-.01.88-.14,1.26-.38l13.08-8.07,54.52,4.17c.54.04,1.08-.09,1.53-.37l18.74-11.56c1.2-.74,1.57-2.31.83-3.51-.74-1.2-2.31-1.57-3.51-.83l-5.42,3.34c-.07-.03-.14-.06-.21-.09l10.37-6.4c1.2-.74,1.57-2.31.83-3.51ZM718.02,286.82c.04.9.56,1.71,1.36,2.13.8.42,1.76.39,2.53-.09l5.54-3.42-7.49,66.63c-.11.97.34,1.92,1.17,2.44.83.52,1.87.53,2.71.02l5.61-3.46-7.36,73.72c-.1.97.36,1.9,1.19,2.42.82.51,1.87.52,2.69,0l4.27-2.64-7.34,24.28c-.31,1.01.05,2.11.89,2.76.71.55,1.64.67,2.46.36l-2.77,3.96c-.69.99-.59,2.33.24,3.21.83.88,2.17,1.05,3.19.42l4.91-3.03-7.7,35.85c-.22,1,.19,2.03,1.02,2.62.83.59,1.94.62,2.81.09l5.39-3.33-8.76,63.55c-.14.98.31,1.95,1.13,2.49.15.1.3.17.46.23l-3.58,2.21-.43-11.68c-.03-.91-.55-1.73-1.35-2.16-.8-.43-1.77-.4-2.54.08l-7.87,4.86-32.68-36.16c-.82-.91-2.19-1.11-3.23-.46l-8.07,4.98-62.92-58.75c-.1-.09-.21-.18-.32-.25-.82-.65-1.99-.75-2.93-.17l-7.59,4.68-14.23-22.28c-.75-1.18-2.31-1.53-3.49-.8l-4.54,2.8,1.21-5.28c.23-1-.17-2.04-1-2.64-.84-.6-1.95-.64-2.82-.1l-6.68,4.12-2.75-12.16c-.18-.8-.74-1.47-1.5-1.79-.76-.32-1.63-.25-2.33.18l-8.01,4.94-47.12-47.07c-.84-.84-2.14-.99-3.14-.37l-6.19,3.82-1.22-11.51c-.05-.44-.21-.86-.46-1.21l20.58-12.7c1.2-.74,1.57-2.31.83-3.51-.46-.74-1.23-1.17-2.04-1.21l205.33-170.88,4.95,99.22ZM45.95,512.85c-.8-.43-1.78-.41-2.55.07l-5.44,3.36,7.64-58.6c.13-.98-.32-1.94-1.14-2.47-.83-.54-1.89-.55-2.72-.03l-5.78,3.56,6.81-99.23c0-.12,0-.24,0-.35,0-.48-.12-.96-.39-1.39-.74-1.19-2.31-1.55-3.5-.81l-4.82,2.97,7.67-33.64c.23-1-.17-2.04-1-2.64-.83-.6-1.95-.64-2.82-.1l-.76.47,3.99-6.41c.63-1.01.48-2.31-.36-3.15-.84-.84-2.14-.99-3.15-.37l-3.41,2.11,6.61-16.5c.41-1.02.12-2.19-.73-2.9-.84-.71-2.05-.8-2.98-.22l-5.65,3.48,7.28-78.13c.09-.96-.37-1.89-1.19-2.4-.57-.35-1.23-.46-1.86-.33l6.34-8.68.46,7.89c.05.9.57,1.7,1.37,2.12.8.41,1.75.38,2.52-.09l7.97-4.91,47.4,46.91c.84.83,2.13.98,3.13.36l6.67-4.12,2.72,12.17c.18.81.74,1.47,1.5,1.79.76.32,1.63.25,2.33-.18l4.53-2.79-1.21,5.28c-.23,1,.16,2.04,1,2.64.84.6,1.95.64,2.83.1l7.58-4.67,14.16,22.32c.19.31.44.56.73.75.82.65,1.99.75,2.93.17l8.06-4.97,62.98,58.72c.84.78,2.1.91,3.08.31l7.91-4.88,32.69,36.16c.83.91,2.19,1.11,3.23.46l7.97-4.92,4.64,4.85-7.42,4.58c-.94.58-1.37,1.66-1.16,2.68l-73.06,59.69c-1.04.85-1.24,2.36-.46,3.46s2.28,1.4,3.42.69l6.46-3.98-152.58,126.12c-.37.04-.73.16-1.05.36l-6.28,3.87-1.75-64.38c-.02-.91-.53-1.74-1.34-2.17ZM716.56,565.41l-54.52-4.17c-.54-.04-1.08.09-1.53.37l-13.14,8.1-153.32-3.66c-.5,0-.98.12-1.4.38l-13.15,8.11-171.67-3.06c-.49,0-.97.12-1.38.38l-12.96,8-38.8-6.76c-.61-.11-1.25.01-1.78.34l-13,8.02-44.74-6.61c-.6-.09-1.2.04-1.71.35l-13.1,8.08-116.51-7.67,176.83-146.16c1.03-.85,1.23-2.36.45-3.45-.78-1.09-2.27-1.39-3.41-.69l-5.1,3.15,52.26-42.7,32.38,33.81c.83.87,2.16,1.04,3.18.41l8.12-5.01,53.37,46.87c.5.44,1.13.65,1.76.63.44-.01.87-.14,1.26-.38l15.55-9.59c1.2-.74,1.57-2.31.83-3.51-.74-1.2-2.31-1.57-3.51-.83l-13.94,8.6-53.37-46.87c-.84-.74-2.07-.84-3.02-.25l-7.97,4.92-40.69-42.49c-.83-.87-2.16-1.04-3.18-.41l-7.92,4.89-32.69-36.16c-.83-.91-2.19-1.11-3.23-.46l-8.06,4.98-62.98-58.72c-.1-.09-.2-.17-.31-.25-.82-.65-1.99-.76-2.93-.18l-7.57,4.67-14.16-22.32c-.75-1.18-2.31-1.54-3.49-.8l-4.53,2.79,1.21-5.28c.23-1-.16-2.04-1-2.64s-1.95-.64-2.83-.1l-6.67,4.12-2.72-12.17c-.18-.81-.74-1.47-1.5-1.79-.76-.32-1.63-.25-2.33.18l-8.01,4.94-47.4-46.91c-.84-.83-2.13-.98-3.13-.36l-6.04,3.72-.38-6.61c.65.17,1.36.09,1.98-.29l14.03-8.66,96.76,5.27c.52.03,1.04-.1,1.48-.38l13.14-8.1,146.4,3.81c.49.01.98-.12,1.41-.38l13.1-8.08,93.1,5.32c.52.03,1.04-.1,1.48-.38l13.08-8.07,77.3,5.76c.54.04,1.07-.09,1.53-.37l13.01-8.03,48.16,6.54c.59.08,1.18-.05,1.68-.36l13.01-8.03,47.83,6.54c.58.08,1.18-.05,1.68-.36l12.94-7.98,42.61,8.63-223.42,185.94c-.33.28-.56.62-.72.99l-12.63,7.79c-1.16.71-1.54,2.2-.91,3.38l-75.76,59.56c-1.06.84-1.29,2.36-.52,3.47.51.73,1.34,1.11,2.17,1.09.43-.01.87-.14,1.26-.38l39.58-24.42c1.2-.74,1.57-2.31.83-3.51-.74-1.2-2.31-1.57-3.51-.83l-1.36.84,49.7-39.07c.76.37,1.68.36,2.45-.12l4.39-2.71,1.22,11.51c.09.87.63,1.64,1.41,2.02.79.39,1.72.34,2.46-.12l7.93-4.89,47.12,47.07c.84.83,2.14.99,3.14.37l6.68-4.12,2.75,12.16c.18.8.74,1.47,1.5,1.79.76.32,1.63.25,2.33-.18l4.54-2.8-1.21,5.28c-.23,1,.17,2.04,1,2.64.84.6,1.95.64,2.82.1l7.59-4.68,14.23,22.28c.2.31.45.56.73.75.82.65,1.99.75,2.92.17l8.07-4.98,62.92,58.75c.84.78,2.1.91,3.08.31l7.92-4.89,32.68,36.16c.82.91,2.18,1.11,3.23.46l5.96-3.67.43,11.58-1.1.68Z"/>
</svg>