<?xml version="1.0" encoding="UTF-8"?>
<svg id="Layer_1" data-name="Layer 1" xmlns="http://www.w3.org/2000/svg" viewBox="0 0 276.37 276.37">
  <defs>
    <style>
      .cls-1 {
        fill: none;
        stroke: #7a5948;
        stroke-linecap: round;
        stroke-linejoin: round;
        stroke-width: 2.04px;
      }
    </style>
  </defs>
  <path class="cls-1" d="M66.94,24.95s.94-.64.94-.64l8.63,10.9.8-.55c.19.27.27,1.95.5,2.28,0,0,.82-.89.97-.66,0,0-16.16,17.18-14.4,19.77.11.16,4.58-3.12,4.58-3.12"/>
  <path class="cls-1" d="M79.69,39.27c.07.11,1.08-.75,1.09-.74l5.99,8.54s1.05-.8,1.09-.74c.09.13-.39,1.51-.39,1.51,0,0,1.04-.81,1.09-.74l5.9,8.43s.96-.92,1.09-.74c.57.84,4.2,6.21,5.13,7.58,0,0,.98-.89,1.08-.74,0,0,5.2,7.53,5.55,8.04,0,0,.91-.99,1.08-.74l7.81,10.52s1.03-.81,1.08-.73c.39.57,1.53,3.58,1.61,3.7,0,0,1.06-.76,1.08-.73.82,1.21,8.57,11.35,8.57,11.35,0,0,.96-.9,1.07-.73l-1.02.79s.97-.89,1.07-.73l9.57,12.44c.09.13,1.07-.73,1.07-.73,1.56,2.29,9.82,12.71,9.82,12.71,0,0,1.07-.73,1.07-.73.78,1.15,7.62,10.09,8.15,10.87.06.09,1.06-.72,1.06-.72.14.21,9.73,12.61,9.73,12.61.19.27.95-.88,1.06-.72l8.61,11.36s.95-.88,1.06-.72c.34.49,1.08,3,1.28,3.28,0,0,.93-.9,1.05-.72,0,0,2.99,5.04,3.34,5.55,0,0,.95-.87,1.05-.72.72,1.06,7.75,10.41,7.75,10.41.04.06,1.01-.78,1.05-.72.09.13.72,2.62.82,2.77l1.05-.71c.81,1.18,4.49,6.57,5.14,7.53l1.05-.71c.23.33,8.28,10.53,9.51,12.33,0,0,.88-.96,1.04-.71l6.72,9.25s.97-.81,1.04-.71c0,0,4.21,6.25,4.85,7.19.15.23,1.04-.71,1.04-.71l1.83,3.86s1.03-.72,1.04-.71c.17.25,2.01,3.45,2.29,3.86.07.11.4-.27.4-.27.04.06-.51.67-.51.67,0,0,.95-.84,1.04-.71.15.22-.03,1.79.04,1.89.15.22,1.04-.71,1.04-.71"/>
  <path class="cls-1" d="M227.15,214.33c.29.43,2.98-2.37,3.14-2.14.51.74,7.33,3.46,7.33,3.46.09.13.48-.33.48-.33.61.89,5.36,15.77,5.36,15.77,0,.01.58-.39.58-.39.44.64,1.78,6.88,2.01,7.22.09.13.65-.44.65-.44.69,1.02,4.5,14.03,4.5,14.03.14.21.63-.72.76-.52,0,0,.1,1.57.17,1.68,0,0,.2-.32.28-.19,0,0-4.15,7.66-3.82,8.14.74,1.08,2.69-1.83,2.69-1.83"/>
  <path class="cls-1" d="M226.78,252.29l.09-.06c.24.35,2.47,1.99,2.6,2.17.07.1.71-.48.71-.48"/>
  <path class="cls-1" d="M72.84,49.44l1.01-.69s4.79,6.83,5.39,7.71c0,0,.89-.83.99-.68l6.84,9.27.98-.67c.69,1.01,6.16,8.5,6.16,8.5,0,0,.83-.85.96-.66l.17,1.9c.05.07.91-.73.96-.65,0,0-.61,1-.51,1.15l.96-.65s-.77.86-.77.86c.13.19.93-.69.96-.65.17.24.03,1.74.03,1.74.06.08.83-.83.96-.65.39.57,7.9,10.38,7.9,10.38.02.03.9-.69.94-.64,0,0,4.47,6.25,5.35,7.55l.93-.63c.05.08,1.34,3.12,1.34,3.12.02.03.81-.79.92-.63,0,0,1.12,2.78,1.36,3.13,0,0,.88-.68.92-.62.47.69,8.39,10.83,8.43,10.88l.9-.61,5.42,7.55s.8-.72.88-.6c1.05,1.53,9.2,11.67,9.2,11.67.01.02.86-.59.86-.59.38.55,9.21,11.6,9.33,11.78l.84-.57c.35.52,1.7,3.35,1.7,3.36l.83-.57.46,1.99s.75-.69.83-.57l3.04,4.81c.13.19.82-.56.82-.56.35.51,4.71,6.38,5.4,7.4.03.05.81-.55.81-.55.32.47,1.52,3.12,1.52,3.12.13.18.81-.55.81-.55,0,0,6.33,8.1,7.09,9.22l.79-.54-.75.58c.15.22.7-.66.79-.54l6.68,8.73c.08.12.63-.73.77-.53.81,1.19,5.84,7.52,6.55,8.57,0,0,.69-.62.76-.52.28.41,4.96,6.79,4.96,6.79l.75-.51,9.19,11.42c.14.21.6-.67.73-.49.07.1-.56.68-.56.68.09.13.69-.55.73-.49.4.59,4.06,5.67,4.27,5.98.13.19.7-.51.72-.49.18.26,1.02,2.38,1.05,2.43l.71-.48c.85,1.25,7.85,9.76,8.1,10.13l.67-.46c.24.36-4.11,12.64-4.11,12.64.16.24,1.4-.96,1.4-.96"/>
  <path class="cls-1" d="M208.72,229.93s.93-.63.93-.63c.04.06,7.93-1.56,8.73-.39l1.82-1.24"/>
  <path class="cls-1" d="M54.83,64.96c.21.3,1.18-1.25,1.39-.95.14.21,7.1,9.48,7.1,9.48,0,0,.67-.48.68-.46.49.72,4.06,5.67,4.06,5.67.07.11.57-.63.68-.46,1.02,1.5,7.7,9.3,8.75,10.84.11.16.67-.47.68-.46,0,0,2.69,4.06,2.96,4.47l.68-.46c.92,1.34,10.19,12.43,10.19,12.43l.68-.46c.36.52,3.52,5.08,3.52,5.08.1.15.68-.46.68-.46.14.21.91,2.12,1.14,2.47.06.09.68-.46.68-.46.76,1.11,9.59,11.72,9.72,11.91.12.17.68-.46.68-.46.29.42,6.19,8.03,6.19,8.03l.68-.46,3.66,5.24c.09.13.59-.6.68-.46,0,0,3.01,4.35,3.48,5.05.05.07.64-.52.68-.46l2.16,3.58s.67-.49.68-.46l8.62,10.7s.68-.46.68-.46l9.71,11.9s.65-.51.68-.46l.41,1.66c.13.19.67-.48.68-.46.09.13,4.08,5.46,4.76,6.46,0,0,.57-.63.68-.46,0,0,6.98,8.6,7.78,9.77l.68-.46s2.16,3.44,2.58,4.05c0,0,.68-.46.68-.46.75,1.1,5.56,7.33,5.56,7.33.07.11.55-.65.68-.46l1.65,3.04.68-.46c.13.19.67,1.93.72,2,.01.02.68-.46.68-.46.63.93,3.46,5.02,3.46,5.02l.68-.46c1.04,1.53,8.25,10.29,8.25,10.29.04.05.62-.55.68-.46.2.29,5.66,7.44,5.66,7.44.05.07.62-.56.68-.47,0,0,6.57,8.19,7.25,9.2,0,0,.63-.55.68-.47,0,0-1.67,13.23-1.2,13.92,0,0,1.73-1.23,1.75-1.19"/>
  <path class="cls-1" d="M51.64,8.63l1.22-.83s.05,1.63.13,1.76c0,0,.81-.8.92-.63.02.03,1.25,2.89,1.51,3.28,0,0,.74-.87.91-.62l2.04,3.83c.1.14.81-.74.9-.61.35.52,1.48,3.03,1.91,3.66,0,0,.76-.78.88-.6.07.1,2.83,6.91,2.83,6.91.31.46,1.95-1.73,2.14-1.46.9,1.32-15.96,17.64-15.32,18.57l2.78-1.89"/>
  <path class="cls-1" d="M47.63,8.2c.2.3,1.1-1.44,1.42-.97,0,0-15.29,15.04-12.96,18.46.26.39,2.94-2.82,3.32-2.26"/>
  <path class="cls-1" d="M31.84,17.02c.98,1.44,8.63-8.78,9.98-6.8.98,1.44-25.94,26.6-25.94,26.6.27.4,2.03-1.39,2.03-1.39,0,0-2.14,1.63-2.13,1.64.11.16,1.94-1.32,1.94-1.32l4.37,10.21c.07.1.77-.89.94-.64.11.17.98,2.76.98,2.76.09.13.93-.63.93-.63l9.1,11.68c.14.2.84-.57.84-.57.12.17,3.89,5.78,3.89,5.78l.78-.53c1.18,1.74,8.61,9.38,8.61,9.38.11.17.08-.06.08-.06,0,0,5.54,7.48,6.31,8.61l1.1-.75c.19.28,5.63,7.78,6.66,9.29,0,0,.95-.96,1.09-.74.69,1.02,5.93,8.32,6.36,8.95l1.09-.74,5.9,8.45s1.03-.83,1.09-.74l8.46,11.27c.18.27.96-.93,1.09-.74,1.2,1.76,7.21,9.89,7.21,9.89,0,0,1.03-.82,1.09-.74l9.78,12.71s.96-.92,1.08-.74c.54.79,2.84,5.05,2.84,5.05.04.06,1.02-.83,1.08-.74l8.72,11.54c.1.14,1.02-.83,1.08-.74.9,1.33,7.79,9.35,7.79,9.35.04.06.03-.02.03-.02,1.12,1.65,6.57,8.24,7.16,9.1l1.08-.73s4.41,6.49,5.19,7.64l1.07-.73c.43.64,6.75,9.35,6.75,9.35l1.07-.73c1.17,1.71,7.06,9.69,7.06,9.69.14.2,1.04-.78,1.07-.73l9.22,12.06,1.07-.73,4.58,6.95c.16.23.94-.91,1.07-.73,0,0,3.26,5.29,3.81,6.1.06.09.98-.85,1.07-.73.04.05,4.55,6.84,4.72,7.1.13.19,1-.82,1.06-.73.35.51,3.55,5.81,3.55,5.81,0,0,.88-.99,1.06-.72.27.39,1.07,3.07,1.07,3.07.02.03.89-.97,1.06-.72s4.61,6.97,4.64,7l1.06-.72c.15.22,1.79,3.68,2.31,4.43.29.42,2.49-1.7,2.49-1.7l5.91,6.06.75-.51c1.02,1.5,13.16,5.73,14.77,8.09.12.18.63-.57.7-.48.22.32,3.3,2.47,3.3,2.47.09.13.66-.66.76-.52l10.43,6.07c.16.24.92-.77.99-.67.08.11,2.53,2.38,2.53,2.38l1.1-.75c.06.09-.44.97-.33,1.11l1.14-.78c.92,1.35,11,4.49,11,4.49l.36-.25,2.62,3.46c.09.13.38-.26.38-.26"/>
  <path class="cls-1" d="M39.31,55.17c.05.08.22-.31.3-.2.2.29,3.65,6.45,3.65,6.45.14.2.82-.56.82-.56,0,0-.73.68-.73.68.06.09.82-.56.82-.56l2.44,4.73c.04.06.3-.43.41-.28"/>
  <path class="cls-1" d="M41.28,62.17c.05.07.18-.27.25-.17.13.2,2.82,4.25,2.82,4.25.08.12.29-.2.29-.2"/>
</svg>