<?xml version="1.0" encoding="UTF-8"?>
<svg id="Layer_1" data-name="Layer 1" xmlns="http://www.w3.org/2000/svg" viewBox="0 0 764.2 764.2">
  <defs>
    <style>
      .cls-1 {
        fill: #0080fe;
      }
    </style>
  </defs>
  <path class="cls-1" d="M492.37,652.6c-.8-.21-1.02-.27-5.33,2.23,7.54-14.86,7.43-15.06,6.71-16.3-.31-.54-.82-.93-1.42-1.09q-.95-.25-4.27,1.7c-.19.11-.4.23-.62.36l3.89-42.97c.04-.48-.06-.96-.3-1.37-.31-.53-.82-.92-1.42-1.08,0,0-.02,0-.03,0,.8-.92,1.51-1.75,2.04-2.36,1.21-1.41,2.01-2.35,1.17-3.8-1.17-2.01-3.07-.91-4.46-.1-.68.4-1.59.92-2.56,1.5.18-.34.37-.68.55-1.01,1.13-2.07,2.25-4.15,3.09-5.72,1.85-3.46,2-3.74,1.33-4.9-.31-.53-.81-.92-1.41-1.08-.59-.16-1.23-.08-1.76.23l-3.98,2.3c1.86-6.54,5.17-17.86,7.48-25.68.27-.91-.04-1.89-.79-2.48-.75-.59-1.77-.66-2.6-.19l-3.56,2.06,5.9-40.86c.07-.51-.03-1.04-.29-1.49-.31-.54-.82-.93-1.42-1.09q-1.03-.27-8.34,4.02c-.14.08-.29.17-.44.26-.83-5.57-2.49-17.21-3.65-25.51-.04-.3-.14-.59-.3-.85-1.18-1.99-3.05-.91-4.29-.19-.67.39-1.57.91-2.47,1.44-.51.3-1.07.62-1.59.93-2.85-5.13-10.41-18.74-14.76-26.58-.3-.54-.81-.94-1.41-1.11-.6-.17-1.24-.09-1.78.23l-3.28,1.89c-3.69-6.78-14.11-25.89-14.42-26.43-.31-.53-.82-.92-1.41-1.08-.59-.16-1.23-.07-1.76.24-1.85,1.08-4.4,2.56-6.29,3.65-.35-1.39-.78-3.09-1.16-4.6q-2.11-8.4-2.33-8.78c-.31-.53-.81-.92-1.41-1.08-.8-.21-.97-.26-5.07,2.11l9.64-44.93c.12-.56.03-1.15-.26-1.65-.31-.53-.82-.92-1.42-1.08-.7-.18-.92-.24-2.98.92l6.1-16.86c.22-.61.17-1.29-.13-1.87-.3-.58-.83-1-1.46-1.17-.88-.23-.98-.26-3.92,1.47l12.5-38.38c.2-.61.14-1.27-.17-1.83-.31-.56-.83-.97-1.45-1.13-.83-.22-1-.26-6.36,2.85,2.57-7.58,7.37-21.3,10.69-30.72.22-.64.16-1.34-.18-1.93-.31-.54-.82-.93-1.43-1.09-.8-.21-1.02-.27-4.42,1.7,1.46-4.12,3.48-9.86,5.51-15.61,1.91-5.42,3.81-10.85,5.22-14.94q2.7-7.82,2.12-8.83c-.31-.53-.81-.92-1.4-1.08q-.97-.26-6.16,2.75c-.48.28-.95.55-1.4.81-.01-.08-.02-.17-.04-.25-5.16-34.48-5.22-34.58-5.55-35.14-.31-.54-.83-.93-1.43-1.09-1.03-.27-1.07-.28-6.73,3.11-3.4-.39-12.02-.16-35.56.78-16.34.65-32.81,1.44-35.21,1.55-.75-.09-1.67.44-7.83,3.98-3.85,2.21-8.96,5.17-14.06,8.13-7.37,4.27-14.72,8.55-18.23,10.59.53-.76.58-1.79.04-2.61-.68-1.03-2.05-1.34-3.11-.71-9.06,5.36-23.84,14.02-25.84,14.99-.17.05-.34.12-.5.21-1.11.64-1.49,2.06-.85,3.17.26.45.66.79,1.13.99l-12.87,9.57c-.99.73-1.23,2.11-.55,3.14.67,1.03,2.03,1.35,3.1.73l9.92-5.73-24.68,39.75c-.39.62-.46,1.4-.19,2.08.16.39.41.73.74.98-.46.4-.94.81-1.43,1.24-1.84,1.6-2.86,2.48-1.87,4.15.65,1.09,2.06,1.46,3.16.83l4.71-2.72c-1.51,2.68-3.3,5.82-4.99,8.79q-12.36,21.7-11.43,23.32c.29.5.74.87,1.28,1.04l-5.96,7.54c-.49.61-.63,1.43-.38,2.17.25.74.85,1.31,1.61,1.51.87.23,1.03.27,7.94-3.76-2.36,5.63-5.96,14.24-9.56,22.88-3.55,8.52-6.36,15.33-8.37,20.24q-4.21,10.29-3.55,11.43c.31.54.82.93,1.42,1.08.73.19.94.25,3.27-1.08-.18,1.4-.39,2.98-.6,4.48-.07.51.03,1.03.29,1.47.31.54.83.93,1.43,1.09.93.24,1.03.26,4.46-1.78,10.27,6.87,25.69,17.25,27.22,18.5.3.3.68.53,1.09.63.17.04.33.08.53.08.4,0,.98-.16,2.23-.79.69.33,1.52.33,2.22-.1,3.86-2.33,8.24-4.92,9.26-5.42.18-.05.35-.12.51-.22.66-.38,1.06-1.04,1.15-1.74l2.62-1.77c1.04-.71,1.33-2.11.65-3.18-.12-.19-.28-.35-.44-.49,2.22-1.3,4.94-2.91,8.28-4.88,1.1-.65,1.47-2.07.82-3.18s-2.07-1.47-3.18-.82c-2.12,1.25-4.72,2.78-7.25,4.26l18.43-23.86c.68-.88.64-2.11-.09-2.95-.51-.59-1.27-.86-2.01-.78,1.92-2.15,3.85-4.32,5.3-6,2.99-3.45,3.71-4.27,2.79-5.85-.31-.53-.82-.93-1.42-1.08-.84-.22-.98-.26-6.44,2.91l9.08-14.73c.56-.9.43-2.07-.31-2.83-.74-.76-1.9-.92-2.82-.39l-4.29,2.48c5.19-9.94,16.09-29.56,23.51-42.72.35-.63.4-1.38.12-2.04-.28-.66-.85-1.16-1.55-1.34-.5-.13-.75-.2-1.6.2l10.37-13.08c.26-.05.52-.13.76-.27,1.08-.63,2.39-1.4,3.68-2.15-2.73,7.46-7.73,20.75-11.2,29.88-.35.92-.08,1.95.67,2.59.75.64,1.81.73,2.66.24l5.45-3.15c-1,2.99-2.29,6.84-3.56,10.62-2.22,6.62-4.75,14.12-6.68,19.97q-3.64,11-3,12.1c.64,1.11,2.06,1.49,3.17.85l3.48-2.01c-1.15,2.79-2.56,6.21-3.96,9.64q-6.96,17.03-6.27,18.23c.31.54.83.93,1.43,1.08.92.24,1.08.28,5.51-2.35-.06,5.23-.37,14.97-.6,22.64q-.59,19.2-.11,20.03c.31.54.82.93,1.43,1.09.6.16,1.24.06,1.77-.25.68-.41,1.39-.83,2.06-1.22l-.32,5.74c-.06,1.1.66,2.09,1.73,2.37.92.24.99.26,4.88-2.02.32,1.66.7,3.57.92,4.73-.06,0-.12-.01-.18-.01-.22-.1-.6-.23-1.07-.21,0,0-.52.02-1.06.31-.78.41-3,4.04-5.54,9.26l-20.43,36.66c-.4.72-.39,1.6.03,2.31.17.29.37.52.57.69-.42.37-.85.74-1.29,1.13-1.81,1.58-2.8,2.45-1.83,4.11.64,1.1,2.06,1.48,3.16.84l4.67-2.7c-1.47,2.66-3.22,5.79-4.86,8.73q-12.02,21.51-11.1,23.11c.29.51.77.89,1.33,1.06l-5.79,7.41c-.48.61-.62,1.43-.37,2.17.25.74.85,1.3,1.61,1.5.86.22,1.03.27,7.65-3.59-2.51,5.72-6.33,14.44-10.15,23.19-3.77,8.65-6.77,15.57-8.91,20.55q-4.48,10.45-3.81,11.6c.31.54.82.93,1.42,1.09.4.11.65.17,1.21-.03-1.09,1.77-2.28,3.69-3.43,5.53-.46.73-.47,1.65-.04,2.4.31.54.83.93,1.43,1.08.54.14.81.21,1.72-.23-1.6,4.31-3.85,10.39-6.06,16.45-8.62,23.61-8.49,23.84-7.77,25.1.31.54.84.94,1.44,1.09.5.13.84.16,1.44-.09l-1,10.32c-.09.87.33,1.72,1.07,2.19.74.47,1.69.48,2.44.02.88-.53,1.87-1.12,2.6-1.55,3.11,2.01,11.66,6.97,36.11,20.61.35.2.74.29,1.13.29.41,0,.83-.11,1.19-.33,5.48-3.28,11.61-6.89,12.84-7.49.18-.05.35-.12.52-.22,1.11-.64,1.49-2.06.85-3.17-.31-.54-.83-.93-1.43-1.09-.34-.09-.6-.15-1.11,0,4.62-2.72,9.14-5.35,10.06-5.82.13-.05.26-.11.38-.18,1.11-.64,1.49-2.06.85-3.17-.31-.54-.82-.93-1.42-1.08-.87-.23-1.09-.28-7.06,3.21l20.93-36.46c.41-.72.41-1.6,0-2.31-.31-.54-.83-.93-1.43-1.09-.95-.25-1.04-.27-5.18,2.19,3.94-11.12,13.86-37.07,20.53-54.25.36-.92.09-1.96-.65-2.6-.75-.64-1.82-.74-2.67-.25l-2.04,1.18c1.61-2.42,3.43-5.16,5.25-7.91,3.12-4.71,5.59-8.48,7.36-11.21,1.01-1.55,1.84-2.86,2.41-3.78.89-1.44,1.44-2.32,1.13-3.34.85-.86,1.15-1.71.48-2.88-.31-.54-.82-.93-1.42-1.08-.6-.16-1.23-.07-1.77.24-1.79,1.05-4.05,2.38-6.16,3.6l19.83-41.15c.44-.92.23-2.02-.51-2.71-.75-.69-1.86-.82-2.74-.31l-3.55,2.05q3.86-7.54,3.15-8.77c-.31-.53-.81-.92-1.41-1.08q-.99-.26-9.42,4.64c-.2.12-.39.23-.58.34l-2-9.87c-.15-.73-.64-1.35-1.32-1.65-.68-.31-1.47-.27-2.11.11l-6.73,3.89c-1.88-5.11-6.21-17.14-9.26-25.63-.26-.72-.85-1.27-1.59-1.46q-.98-.26-6.09,2.74c-.33.19-.68.4-1.04.61l-1.24-11.95c.51.07,1.03-.02,1.48-.28l5.4-3.12c.16.39.33.81.51,1.26,8.96,22.21,9.02,22.32,9.16,22.56.31.53.82.92,1.41,1.08.97.26.99.26,6.99-3.24.2,3.59.24,3.66.51,4.12.31.54.82.93,1.42,1.09.9.24.98.25,4.15-1.61,1.62,8.34,1.66,8.41,1.89,8.81.31.53.82.92,1.41,1.08.6.16,1.23.07,1.76-.24,2.02-1.17,4.88-2.83,6.73-3.9,1.36,2.15,4.08,6.44,9.19,14.48,3.98,6.27,8.09,12.74,8.26,13.02.64,1.11,2.06,1.49,3.17.85l3.18-1.84,12.55,23.49c.3.55.8.96,1.41,1.14.3.08.61.11.91.07l-2.68,18.9c-.12.88.26,1.75,1,2.25.74.5,1.69.53,2.46.08.6-.35,1.28-.74,1.97-1.14-.63,4.37-1.6,11.2-2.56,18.06q-3.32,23.62-2.77,24.58c.31.54.82.93,1.42,1.08.76.2,1,.26,4.11-1.53-1.3,2.82-2.89,6.2-4.39,9.39-.43.92-.22,2.01.53,2.7.75.69,1.85.81,2.73.3,2.05-1.19,4.6-2.66,6.79-3.93-.05.16-.09.32-.14.49-9.76,34.47-9.59,34.76-8.88,35.99.64,1.11,2.06,1.49,3.17.85l4.4-2.54c-2.4,20.17-2.3,20.34-1.82,21.16.31.53.81.92,1.41,1.08.59.16,1.23.08,1.76-.23l6.89-3.98,29.67,28.8c.45.43,1.03.66,1.62.66.4,0,.81-.11,1.17-.32,5.18-3.04,13.63-7.98,14.85-8.61.11-.04.22-.09.32-.15,1.11-.64,1.49-2.06.85-3.17-.31-.54-.82-.93-1.42-1.09-.28-.08-.5-.13-.92-.02l12.85-7.42c1.11-.64,1.49-2.06.85-3.17-.64-1.11-2.06-1.49-3.17-.85l-3.32,1.92c2.88-3.46,6.03-7.25,8.53-10.23.63-.75.72-1.81.23-2.65-.31-.54-.82-.93-1.42-1.08ZM279.03,258.86c-.33-.18-.71-.28-1.09-.28.36,0,.74.09,1.09.28ZM320.65,678.62c.32.35.74.59,1.19.7-.42-.09-.84-.31-1.19-.7ZM339.41,472.93c.59-.35,1.27-.74,1.9-1.12,9.06,25.26,9.35,25.77,9.48,26,.64,1.11,2.06,1.49,3.17.85l6.29-3.63,2,9.87c.05.25.14.49.27.71,1.17,2,3.11.88,4.16.27l2.4-1.4c.33-.19.68-.4,1.05-.61q-3.87,7.57-3.17,8.79c.31.53.81.92,1.41,1.08.6.16,1.23.08,1.76-.23l3.64-2.1-19.8,41.09c-.3.62-.31,1.35-.02,1.98.19.4.48.74.84.97.06.23.16.46.3.67.67,1.04,2.04,1.37,3.11.74.86-.5,1.85-1.07,2.87-1.66-4.57,6.99-11.42,17.3-16.33,24.64-.6.9-.5,2.09.23,2.88.74.79,1.92.96,2.85.42l4.94-2.85c-2.2,5.7-5.64,14.64-9.02,23.55-11.71,30.83-11.55,31.1-10.79,32.41.31.54.83.93,1.43,1.09.75.2.94.25,2.83-.84l-20.99,36.57c-.52.91-.37,2.07.38,2.81.45.44,1.04.67,1.63.67.04,0,.08-.01.11-.02-1.95,1.11-4.88,2.85-9.43,5.57-13.23-7.38-33.46-18.8-35.48-20.27-.29-.28-.65-.48-1.04-.58-.58-.15-.87-.2-1.73.22l1-10.3c.09-.88-.33-1.73-1.08-2.19-.35-.22-.74-.34-1.14-.35,2.98-8.77,9.98-27.78,14.71-40.41.35-.92.07-1.96-.69-2.6-.27-.23-.58-.38-.91-.47,4.49-7.26,4.36-7.5,3.67-8.69-.31-.54-.82-.93-1.42-1.09-.6-.16-1.24-.07-1.77.25-.37.22-.74.44-1.11.66,4.79-11.26,15.58-35.94,23.31-53.51.41-.92.17-2-.58-2.67s-1.85-.78-2.72-.27c-.54.32-1.12.66-1.74,1.02l4.59-5.88c.68-.88.65-2.11-.08-2.95-.73-.84-1.95-1.04-2.91-.49l-.65.38c2.23-4.1,5.21-9.44,7.68-13.86q9.35-16.72,8.53-18.13c-.14-.24-.32-.45-.53-.63.31-.28.59-.54.83-.77,1.54-1.45,2.75-2.59,1.78-4.28-.31-.53-.82-.92-1.42-1.08-.78-.21-.95-.25-5.53,2.38l18.17-32.6,1.1,10.6c.1.96.78,1.76,1.71,2q.98.26,5.92-2.64ZM479.31,659.81c-.47.92-.27,2.04.48,2.74.57.53,1.35.73,2.08.58-.05.06-.11.13-.16.19-2.07,2.5-4.15,5-5.69,6.89-.78.95-1.43,1.75-1.88,2.32-.86,1.09-1.68,2.11-.87,3.51.31.53.81.92,1.41,1.08.2.05.4.08.6.08.07,0,.14-.02.21-.03-2.04,1.1-5.6,3.19-12.17,7.05l-29.66-28.79c-.74-.72-1.88-.86-2.78-.34l-4.55,2.63c.55-5.13,1.56-13.82,2.27-19.81.1-.87-.29-1.73-1.03-2.21s-1.68-.51-2.44-.07l-3.91,2.26c1.96-7.63,6.15-22.43,8-28.96q1.95-6.88,1.45-7.75c-.3-.53-.8-.92-1.39-1.08-.92-.26-.95-.26-7.07,3.28,4.81-10.25,4.71-10.42,4.09-11.49-.31-.54-.82-.93-1.42-1.08-.6-.16-1.24-.07-1.77.25-1.55.92-3.18,1.88-4.58,2.7,1.11-8.49,3.83-27.7,5.78-41.29.17-1.15-.55-2.25-1.67-2.56-.85-.24-.94-.26-3.77,1.36l2.64-18.66c.12-.88-.26-1.75-1-2.25-.73-.5-1.69-.53-2.46-.09l-1.13.65-12.55-23.49c-.3-.55-.8-.96-1.41-1.14-.6-.17-1.25-.09-1.8.22l-3.33,1.92c-1.11-1.75-3.2-5.04-7.12-11.21-4.73-7.46-10.09-15.91-10.32-16.27-.31-.53-.81-.92-1.4-1.08q-.96-.26-6.13,2.73l-1.54.89c-.47-2.4-1.12-5.72-1.58-8.12-.17-.88-.83-1.58-1.69-1.8-.95-.25-1-.22-3.67,1.35-.02.01-.05.03-.07.04-.03-.56-.06-1.09-.08-1.5q-.12-2.17-.4-2.65c-.31-.53-.82-.92-1.41-1.08q-.95-.25-4.76,1.98c-.92.53-2.14,1.25-3.19,1.86-1.88-4.62-6-14.83-8.01-19.82q-1.56-3.88-1.65-4.02c-.31-.54-.81-.93-1.41-1.09-.6-.16-1.23-.08-1.77.23l-4.9,2.83c-1.21-6.19-1.23-6.23-1.41-6.54-1.18-2.01-2.77-1.07-4.97.22-.13.08-.27.16-.42.25l.31-5.72c.02-.45-.08-.9-.31-1.29-.31-.54-.83-.93-1.43-1.09-.83-.22-1.02-.27-4.06,1.52.08-3.66.26-9.38.42-14.65.83-26.87.72-27.06.2-27.97-.31-.54-.82-.93-1.43-1.09-.6-.16-1.24-.07-1.77.25-.49.29-1,.59-1.5.89,2.73-6.81,7.38-18.14,10.64-26,.38-.92.13-1.98-.61-2.63-.75-.66-1.83-.76-2.69-.26l-4.32,2.5c2.03-6.26,5.56-16.75,8.16-24.5,1.49-4.44,2.86-8.52,3.85-11.5q1.94-5.82,1.38-6.79c-.64-1.11-2.06-1.49-3.17-.85l-5.04,2.91c1.23-3.26,2.82-7.46,4.4-11.68q7.05-18.83,6.37-20.01c-.31-.54-.82-.93-1.42-1.09-.46-.12-.72-.19-1.76.31.54-.74.59-1.73.14-2.52-.31-.54-.83-.93-1.42-1.09q-1.14-.3-12.39,6.35c-1.86,1.1-3.78,2.24-4.07,2.39l1.03,2.08,2.01-1.16-2.01,1.16-.59,2.24q.97.25,5.99-2.72s.08-.05.12-.07l-17.76,22.41c-.49.61-.63,1.43-.38,2.17.25.74.85,1.31,1.61,1.51.86.23.98.26,4.72-1.93-2.57,4.59-6.02,10.78-9.43,16.96-14.13,25.64-13.95,25.95-13.07,27.46.31.53.81.92,1.41,1.08.59.16,1.23.08,1.76-.23l2.68-1.55-9.11,14.78c-.38.62-.45,1.39-.18,2.07.27.68.85,1.19,1.56,1.38.68.18.87.23,2.65-.76-1.86,2.09-3.68,4.13-5.05,5.71-2.84,3.27-3.61,4.15-2.7,5.72.64,1.11,2.06,1.49,3.17.85l.35-.2-18.33,23.72c-.58.74-.64,1.76-.17,2.58.18.31.43.57.73.76-2.74,1.62-5.05,2.95-6.32,3.64-2.58-1.91-9.36-6.56-27.82-18.88-.69-.46-1.57-.52-2.3-.16.68-5.11.6-5.25.21-5.94-.31-.54-.82-.93-1.42-1.09-.53-.14-1.09-.09-1.58.15,4.49-11.08,14.65-35.41,21.92-52.72.39-.92.14-1.99-.61-2.64-.75-.66-1.84-.76-2.7-.25-.53.31-1.1.65-1.7,1l4.68-5.92c.69-.87.66-2.11-.07-2.96-.73-.84-1.95-1.05-2.92-.49l-.58.34c2.29-4.13,5.36-9.52,7.9-13.98q9.61-16.86,8.78-18.29c-.14-.24-.31-.44-.51-.61.35-.32.67-.61.94-.87,1.56-1.46,2.8-2.61,1.82-4.3-.31-.53-.82-.93-1.42-1.08-.75-.2-.94-.25-4.94,2.04l24.65-39.71c.52-.84.45-1.91-.15-2.67l17.72-13.18c-.21.61-.17,1.31.18,1.91.65,1.11,2.06,1.48,3.17.84,14.86-8.65,37.09-21.55,40.34-23.33,25.28-1.22,65.78-2.9,70.03-2.39.08.03.16.06.25.08.6.16,1.24.07,1.77-.25.9-.54,1.85-1.1,2.71-1.6,1.12,7.13,3.72,24.49,4.7,31.03q.61,4.08.85,4.48c.65,1.09,2.06,1.46,3.16.82,1.02-.59,2.26-1.31,3.47-2.02-2.98,8.64-8.93,25.51-13.23,37.66-.33.92-.04,1.95.71,2.57.76.62,1.82.7,2.66.2.9-.54,1.83-1.09,2.72-1.61-1.19,3.38-2.74,7.83-4.29,12.29q-6.67,19.19-6.01,20.33c.31.54.82.93,1.42,1.08.6.16,1.23.07,1.77-.24,1.53-.9,3.13-1.83,4.57-2.67l-12.52,38.44c-.2.63-.13,1.31.2,1.88.31.54.82.93,1.42,1.08.83.22.98.25,3.64-1.3l-6.1,16.87c-.24.66-.16,1.4.2,2,1.19,1.95,2.92.93,4.59-.05.22-.13.49-.29.78-.46l-9.65,44.99c-.19.9.16,1.83.91,2.37.74.54,1.74.59,2.53.12,1.79-1.05,3.71-2.17,5.19-3.02.39,1.55.88,3.51,1.32,5.25q1.95,7.78,2.17,8.16c1.17,2.01,2.97.97,4.57.05.84-.48,1.96-1.13,3.08-1.78.84-.49,1.69-.98,2.41-1.4,2.81,5.13,10.16,18.62,14.38,26.38.3.55.81.95,1.41,1.12.6.17,1.25.09,1.79-.22l3.29-1.9c3.77,6.79,14.49,26.11,14.78,26.6.31.53.82.92,1.41,1.08q.96.25,5.41-2.34c.2-.11.4-.23.6-.35,3.62,25.66,3.72,25.83,4,26.33.31.53.81.92,1.4,1.08q.97.26,5.15-2.2c.7-.41,1.56-.92,2.42-1.42l-5.91,40.89c-.13.88.26,1.75,1,2.25s1.69.53,2.46.09l2.68-1.55c-.82,2.8-1.86,6.35-2.9,9.91q-4.79,16.45-4.19,17.49c.64,1.11,2.06,1.49,3.17.85l1.82-1.05c-1.69,3.11-3.64,6.69-5.15,9.44-.34.62-.38,1.37-.1,2.03.28.65.84,1.14,1.53,1.33.4.11.64.17,1.27-.07-2.75,3.34-2.55,3.67-1.92,4.77.31.53.82.92,1.41,1.08q.95.25,4.25-1.69c.59-.35,1.35-.79,2.12-1.25l-3.89,42.99c-.1,1.13.63,2.16,1.72,2.45.66.17.88.23,2.41-.6-1.99,4.03-4.69,9.42-7.24,14.42Z"/>
  <path class="cls-1" d="M329.34,668.3c.05.06.1.1.15.15-.05-.05-.11-.1-.15-.15Z"/>
  <path class="cls-1" d="M329.61,668.58c.06.05.13.1.19.14-.07-.04-.13-.09-.19-.14Z"/>
  <path class="cls-1" d="M329.93,668.8c.07.04.14.07.2.1-.07-.03-.14-.06-.2-.1Z"/>
  <path class="cls-1" d="M330.27,668.96c.07.03.14.05.21.06-.07-.02-.14-.04-.21-.06Z"/>
  <path class="cls-1" d="M330.63,669.07c.08.02.16.03.24.03-.08,0-.16-.02-.24-.03Z"/>
  <path class="cls-1" d="M331.71,669.04c-.12.03-.24.06-.37.07.12-.01.25-.04.37-.07Z"/>
  <path class="cls-1" d="M331.32,669.11c-.11.01-.22.01-.34,0,.11,0,.22,0,.34,0Z"/>
  <path class="cls-1" d="M346.2,228.95c-.19,0-.38-.01-.58-.05.19.04.38.06.58.05Z"/>
  <path class="cls-1" d="M344.48,228.28c-.14-.14-.27-.29-.37-.47.1.18.23.33.37.47Z"/>
  <path class="cls-1" d="M345.55,228.88c-.18-.04-.35-.11-.52-.2.16.09.34.15.52.2Z"/>
  <path class="cls-1" d="M344.97,228.65c-.16-.09-.32-.2-.46-.34.14.13.29.24.46.34Z"/>
  <path class="cls-1" d="M279.93,259.73c-.1-.17-.22-.31-.35-.45.13.13.25.28.35.45Z"/>
  <path class="cls-1" d="M279.51,259.21c-.13-.12-.28-.23-.43-.32.15.09.3.2.43.32Z"/>
  <path class="cls-1" d="M277.91,258.58c-.13,0-.27.01-.4.04.13-.03.26-.04.4-.04Z"/>
  <path class="cls-1" d="M264.15,432.5c-.05-.04-.11-.09-.18-.14.06.04.13.08.19.12,0,0,0,.01-.02.02Z"/>
  <path class="cls-1" d="M270.31,665.25v-.04c.13.1.28.22.49.37-.17-.09-.34-.19-.49-.32Z"/>
  <path class="cls-1" d="M476.39,679.86c.07.08.14.15.21.21-.07-.07-.15-.13-.21-.21Z"/>
  <path class="cls-1" d="M476.68,680.13c.09.07.18.13.27.19-.09-.06-.18-.12-.27-.19Z"/>
  <path class="cls-1" d="M477,680.36c.09.05.19.1.29.14-.1-.04-.2-.08-.29-.14Z"/>
  <path class="cls-1" d="M477.35,680.52c.1.04.2.06.3.09-.1-.02-.2-.05-.3-.09Z"/>
  <path class="cls-1" d="M477.72,680.63c.11.02.22.03.34.04-.11,0-.23-.02-.34-.04Z"/>
  <path class="cls-1" d="M478.86,680.56c-.24.08-.5.12-.77.11.26,0,.52-.03.77-.11Z"/>
  <path class="cls-1" d="M347.81,147.66c.31.53.81.92,1.41,1.08.59.16,1.23.08,1.76-.23l6.14-3.55c-.34,2.18-.76,4.84-1.14,7.22q-2.59,16.21-2,17.23c.31.53.81.92,1.41,1.08.6.16,1.23.08,1.76-.23h.02s-1.71,4.61-1.71,4.61c-.23.61-.19,1.29.12,1.87.3.58.83,1.01,1.46,1.18q.99.27,6.99-3.22c1.26-.73,2.52-1.47,3.48-2.03,9.8,11.49,23.45,27.52,24.24,28.5.31.42.76.72,1.27.86,1.02.27,1.08.28,7.93-3.78,1.04.73,2.73,1.88,5.52,3.77.22.15.47.26.73.33.22.06.39.1.6.1.82,0,2.09-.74,8.4-4.52,7.31-.22,17.57-.46,19.36-.32.02,0,.04.01.06.02,1.15.29,1.33.34,12.23-6.31,1.09-.67,1.44-2.09.77-3.19-.59-.96-1.76-1.34-2.78-.97l14.49-8.37c1.11-.64,1.49-2.06.85-3.17-.64-1.11-2.06-1.49-3.17-.85l-5.32,3.07c1.99-2.24,4.13-4.66,6.26-7.08,4.57-5.19,8.21-9.34,10.8-12.34,1.55-1.79,2.74-3.19,3.54-4.17,1.36-1.64,2.17-2.62,1.69-3.89.61-.75.81-1.55.22-2.58-.31-.54-.82-.93-1.42-1.09-.6-.16-1.23-.07-1.77.24-2.2,1.29-5.15,3.01-7.56,4.41l6.87-34.11c.18-.89-.18-1.81-.92-2.34-.74-.53-1.73-.58-2.51-.13l-1.66.96c4.24-7.7,4.23-7.72,3.51-8.97-.31-.54-.82-.93-1.42-1.09q-.98-.26-9.23,4.54l-.04-10.52c0-.83-.45-1.59-1.16-2-.72-.41-1.6-.41-2.32,0l-6.99,4.03c-3.43-5.59-13.04-21.17-14.33-23.26-.31-.51-.81-.87-1.38-1.03q-1-.26-6.88,3.19c-1.22.72-2.75,1.62-3.73,2.19l-14.32-7.74c-.18-.1-.36-.18-.56-.23q-1.21-.32-15.1,7.91c-.5.29-.99.59-1.48.87.39-.74.37-1.65-.13-2.38-.69-1.01-2.04-1.31-3.1-.69-6.23,3.68-16.41,9.64-17.9,10.38-.14.05-.27.11-.4.18-1.11.64-1.49,2.06-.85,3.17.16.27.36.5.61.69l-13.63,10.62c-.96.75-1.18,2.12-.5,3.13.68,1.01,2.03,1.32,3.08.71l11.83-6.83-21.32,37.87c-.35.63-.39,1.38-.12,2.04.21.49.58.89,1.04,1.14-.04.04-.08.08-.12.12-1.44,1.38-2.38,2.29-1.48,3.87ZM409.22,198.31c.07.06.14.11.21.18-.06-.07-.14-.12-.21-.18ZM434.45,196.93c.09.09.18.18.28.26-.1-.07-.19-.16-.28-.26ZM436.29,193.05c.22.01.44.06.67.13-.19-.05-.4-.1-.67-.13ZM424.27,84.29c-.1-.18-.23-.34-.38-.48.14.14.27.3.38.48ZM423.87,83.79c-.15-.14-.31-.26-.49-.36.17.1.34.21.49.36ZM405.17,78.76c-.14-.14-.27-.3-.38-.49.11.18.23.34.38.49ZM405.69,79.14c-.18-.09-.34-.21-.5-.37.15.14.32.27.5.37ZM372.43,91.98c-.1-.17-.22-.32-.35-.45.13.13.25.28.35.45ZM370.99,90.9c-.18-.04-.36-.07-.55-.07.18,0,.36.02.55.07ZM372.01,91.45c-.27-.26-.6-.44-.95-.54.34.1.67.27.95.54ZM370.4,90.83c-.18,0-.37.02-.55.07.17-.05.36-.07.55-.07ZM378,97.52c.51-.91.35-2.05-.39-2.79-.11-.11-.22-.2-.34-.28l10.22-7.96.66,1.38,2.01-1.16-2.01,1.16-.59,2.24q.99.26,7.08-3.35c3.56-2.11,9.74-5.77,12.08-7.05l14.44,7.8c.16.09.34.16.51.2q.99.26,6.66-3.07c.99-.58,2.17-1.28,3.13-1.84,4.74,7.7,13.95,22.64,14.3,23.23.64,1.11,2.06,1.49,3.17.85l5.48-3.16.04,10.53c0,.41.11.81.32,1.16,1.17,2.01,3.12.88,4.16.27l2.41-1.4c.18-.1.37-.21.56-.33q-4.26,7.73-3.53,9c.31.53.81.92,1.41,1.08.59.16,1.23.08,1.76-.23l4.21-2.43-6.86,34.06c-.22,1.1.38,2.19,1.39,2.6.05.11.11.22.18.32.51.78,1.42,1.16,2.29,1.02-6.68,7.66-16.18,18.37-23.06,26.1-.76.85-.79,2.12-.07,3.01.45.56,1.12.86,1.8.86.4,0,.8-.1,1.16-.31l1.5-.86c-3.46,2.09-7,4.18-8.25,4.84-2.42-.24-7.75-.08-20.39.31-.4.01-.78.13-1.12.33-2.36,1.42-4.97,2.95-6.4,3.76-2.44-1.66-4.83-3.31-5.3-3.66-.27-.24-.6-.42-.96-.51-.6-.16-1.24-.07-1.77.25-2.06,1.22-4.3,2.53-5.73,3.36-2.29-2.72-8.31-9.81-24.38-28.65-.73-.86-1.97-1.07-2.94-.5-1.4.82-3.15,1.84-4.81,2.8l1.73-4.66c.34-.92.07-1.95-.68-2.58-.75-.63-1.81-.72-2.66-.24l-1.58.91c.47-3.15,1.16-7.47,1.72-11.02q2.01-12.58,1.49-13.48c-.2-.35-.49-.64-.83-.84,1.94-2.04,2.06-2.68,1.34-3.93-.31-.53-.81-.92-1.41-1.08-.73-.2-.92-.25-4.45,1.77l21.3-37.84Z"/>
  <path class="cls-1" d="M540.53,395.36c-.31-.54-.83-.93-1.43-1.09q-1.15-.29-9.2,4.54c-.27.16-.56.33-.84.5,2.2-6.79,6.24-18.7,9.04-26.84.32-.92.03-1.93-.72-2.55-.75-.62-1.8-.7-2.64-.22l-4.98,2.87c2.1-17.66,2.06-17.72,1.6-18.53-.24-.41-.59-.73-1.01-.93-.04-.1-.1-.21-.16-.31-.31-.53-.82-.92-1.42-1.08-.6-.16-1.23-.07-1.76.24-2.72,1.59-6.68,3.9-9.04,5.26l-12.8-24.41c-.29-.56-.8-.98-1.41-1.15-.61-.18-1.26-.1-1.81.22l-3.39,1.95s0,0,0,0q2.52-7,1.9-8.06c-1.17-1.99-3.22-.82-3.89-.44-.47.27-1.12.64-1.88,1.08-1.5.87-3.41,1.98-5.04,2.93-.24.14-.47.27-.7.41l-2.22-9.8c-.16-.72-.66-1.32-1.33-1.61-.68-.3-1.45-.25-2.09.12l-6.82,3.94c-2-5.01-6.65-16.92-9.92-25.32-.27-.69-.85-1.21-1.57-1.4q-.99-.26-6.12,2.76c-.35.21-.73.43-1.12.66l-1.6-12.66c-.12-.94-.8-1.71-1.71-1.95-.17-.04-.31-.08-.46-.09-.08-.1-.17-.2-.27-.29-.75-.66-1.83-.76-2.69-.27-1.68.85-3.02,1.49-3.85,1.88-3.67,1.73-5.19,2.25-5.81,3.81-.37.94-.2,1.71-.17,1.85.39,1.68,2.39,2.93,4.11,2.68.51-.07.89-.26,1.12-.39l-13.07,31.47c-.26.62-.23,1.32.06,1.92.19.38.47.69.81.92-.23.21-.47.43-.71.65-1.52,1.4-2.52,2.32-1.6,3.93.31.54.81.93,1.41,1.09.6.16,1.23.08,1.77-.23l5.39-3.11c-.91,2.43-2.01,5.31-3,7.89q-7.2,18.86-6.43,20.19c.31.53.81.92,1.41,1.08.6.16,1.23.08,1.76-.23l.47-.27-1.84,4.66c-.24.62-.21,1.31.09,1.9.3.59.83,1.03,1.47,1.2q.99.26,7.1-3.28c1.21-.71,2.42-1.41,3.38-1.97,7.49,11.17,19.92,29.71,20.43,30.48.31.5.81.86,1.38,1.02.87.23,1.01.26,4.8-1.97.47,1.41,1.04,3.12,1.46,4.39.05.15.12.3.2.44.31.54.83.93,1.43,1.08.92.24,1.03.26,4.41-1.75,8.86,7.82,21.93,19.41,23.12,20.63.31.38.74.66,1.23.78.23.06.41.1.62.1.76,0,1.87-.61,6.61-3.49l6.27,2.58c.68.28,1.45.22,2.08-.16,3.78-2.29,8.08-4.82,9.08-5.32.18-.05.35-.12.52-.22,1.11-.64,1.48-2.06.84-3.17-.31-.54-.83-.93-1.44-1.09-.2-.05-.37-.09-.56-.1,1.02-.57,2.53-1.47,4.91-2.9,2.39-1.43,5.94-3.56,6.87-4.03.18-.05.36-.13.53-.22,1.11-.64,1.49-2.06.85-3.17ZM525.67,409.6c.33.36.76.6,1.22.69-.43-.09-.86-.31-1.22-.69ZM523.21,405.36c.31.54.83.93,1.43,1.09.17.04.32.08.47.09-1.39.75-3.65,2.1-7.57,4.46l-6.27-2.59c-.68-.28-1.46-.22-2.09.17-1.69,1.03-3.62,2.19-4.85,2.9-2.33-2.18-8.23-7.48-23.51-20.94-.76-.67-1.86-.77-2.73-.25-.52.31-1.07.64-1.59.95-1.51-4.55-1.56-4.64-1.69-4.86-.31-.54-.82-.93-1.42-1.08-.6-.16-1.24-.07-1.77.25-1.23.73-2.55,1.5-3.57,2.09-1.98-2.97-7.12-10.64-20.5-30.57-.68-1.02-2.04-1.33-3.1-.71-1.41.82-3.16,1.85-4.83,2.82l1.86-4.7c.36-.92.11-1.97-.64-2.61-.75-.64-1.82-.75-2.68-.25l-.97.56c1.33-3.61,3.16-8.39,4.66-12.33q5.6-14.66,4.92-15.83c-.18-.31-.42-.57-.7-.76.08-.08.17-.16.24-.24,1.35-1.34,2.52-2.49,1.57-4.13-.31-.53-.82-.92-1.41-1.08-.84-.22-.97-.26-6.16,2.75l11.9-28.64,1.41,11.21c.12.94.79,1.71,1.71,1.95q.98.26,5.93-2.64c.62-.37,1.34-.78,2-1.17,9.71,24.92,10.02,25.45,10.12,25.63.31.53.81.92,1.41,1.08.59.16,1.23.08,1.76-.23l6.4-3.69,2.22,9.8c.06.25.15.48.28.7,1.19,1.94,3.04.86,4.14.22l2.43-1.42c.68-.39,1.47-.86,2.29-1.33-.03.08-.06.16-.09.24q-2.44,6.8-1.85,7.84c.31.53.81.92,1.41,1.08.6.16,1.23.08,1.76-.23l6.65-3.84,12.78,24.38s.04.06.05.1c.86,1.47,2.02,1.33,3.36.7.73.71,1.86.86,2.77.33,1.59-.92,3.66-2.12,5.44-3.15-.51,4.63-1.38,12-1.99,17.17-.1.87.29,1.73,1.03,2.21.73.48,1.68.51,2.44.07l3.62-2.09c-.99,2.9-2.23,6.55-3.46,10.2-5.76,17.1-5.73,17.15-5.04,18.35Z"/>
  <path class="cls-1" d="M505.36,412.46c.16.13.31.29.44.47-.08-.1-.2-.23-.44-.47Z"/>
  <path class="cls-1" d="M536.77,398.03c.09.1.19.2.29.29-.1-.08-.2-.18-.29-.29Z"/>
</svg>