<?xml version="1.0" encoding="UTF-8"?>
<svg id="Layer_1" data-name="Layer 1" xmlns="http://www.w3.org/2000/svg" viewBox="0 0 276.37 276.37">
  <defs>
    <style>
      .cls-1 {
        fill: #348522;
      }
    </style>
  </defs>
  <path class="cls-1" d="M139.68,0c18.68,0,37.11,4.03,55.3,12.09,18.18,8.06,33.33,18.86,45.46,32.41,23.96,27.1,35.94,57.75,35.94,91.98,0,38.5-13.48,71.44-40.43,98.82-26.95,27.38-59.4,41.07-97.33,41.07s-70.34-13.62-97.65-40.86C13.65,208.28,0,175.76,0,137.97S13.55,66.84,40.64,40.11C67.73,13.37,100.75,0,139.68,0ZM139.04,16.9c-33.8,0-62.5,11.91-86.1,35.72-23.6,23.82-35.4,52.76-35.4,86.85,0,28.52,9.84,54.41,29.52,77.65,23.53,27.81,55.11,41.71,94.76,41.71,14.97,0,30.05-3.42,45.24-10.27,15.19-6.84,28.41-16.18,39.68-28.02,21.1-22.39,31.66-50.91,31.66-85.56,0-32.09-11.76-59.79-35.29-83.1-23.53-23.32-51.55-34.97-84.07-34.97ZM207.92,146.95l11.12-.21c-2,24.1-10.23,43.32-24.71,57.65-14.48,14.33-32.91,21.5-55.3,21.5s-42.18-7.06-56.79-21.18c-14.62-14.12-22.99-33.37-25.13-57.75h9.84c11.41,38.65,35.29,57.97,71.66,57.97,17.4,0,32.41-5.28,45.03-15.83,12.62-10.55,20.71-24.6,24.28-42.14ZM91.98,74.87c6.56,0,11.94,2.07,16.15,6.2,4.2,4.14,6.31,9.49,6.31,16.04,0,5.56-2.28,10.55-6.85,14.97-4.57,4.42-9.77,6.63-15.61,6.63s-10.7-2.28-14.97-6.84c-4.28-4.56-6.42-9.77-6.42-15.61s2.14-10.87,6.42-15.08c4.28-4.2,9.27-6.31,14.97-6.31ZM179.9,74.87c6.13,0,11.26,2.18,15.4,6.52,4.14,4.35,6.2,9.73,6.2,16.15,0,5.7-2.14,10.59-6.42,14.65-4.28,4.07-9.41,6.1-15.4,6.1s-11.09-2.14-15.29-6.42c-4.21-4.28-6.31-9.48-6.31-15.61s2.17-10.87,6.52-15.08c4.35-4.2,9.45-6.31,15.29-6.31Z"/>
</svg>